<svg width="30" height="48" viewBox="0 0 30 48" fill="none" xmlns="http://www.w3.org/2000/svg">
<path d="M21.3916 13.9468C21.4286 13.4156 21.2991 12.8844 20.9845 12.4671C20.6329 11.9928 20.1332 11.6892 19.5781 11.6134C19.0044 11.5375 18.4492 11.6703 17.9866 12.0307C17.524 12.3912 17.2279 12.9034 17.1538 13.4725C17.0428 14.2314 17.3389 14.9712 17.8756 15.4455L6.71679 43.6176C6.19864 43.5796 5.69899 43.7124 5.27336 44.0349C4.81073 44.3954 4.51464 44.9076 4.44062 45.4767C4.27407 46.6719 5.08831 47.7912 6.25415 47.9809C6.36518 47.9999 6.45771 47.9999 6.56874 47.9999C7.62355 47.9999 8.54883 47.2031 8.69687 46.1028C8.77089 45.5147 8.64135 44.9455 8.28975 44.4713C8.19722 44.3574 8.1047 44.2436 7.99366 44.1488L9.19652 41.1134C10.2513 41.5497 11.3802 41.8532 12.509 42.024C13.2122 42.1378 13.9339 42.1758 14.6371 42.1758C17.7645 42.1758 20.7994 41.1513 23.3532 39.1973C26.4806 36.8069 28.4977 33.2973 29.0714 29.3513C29.9596 23.0339 26.8692 16.8873 21.3916 13.9468ZM6.45771 46.577C6.03209 46.5201 5.75451 46.1217 5.81002 45.6854C5.84703 45.4767 5.93956 45.287 6.10611 45.1732C6.23565 45.0783 6.4022 45.0214 6.56874 45.0214C6.60576 45.0214 6.64277 45.0214 6.67978 45.0214C6.88334 45.0594 7.06839 45.1542 7.17942 45.325C7.30896 45.4957 7.34597 45.7044 7.32747 45.9131C7.27195 46.3494 6.88334 46.634 6.45771 46.577ZM18.8008 13.15C18.9304 13.0552 19.0969 12.9982 19.2635 12.9982C19.3005 12.9982 19.3375 12.9982 19.3745 12.9982C19.5781 13.0362 19.7631 13.131 19.8741 13.3018C20.0037 13.4725 20.0407 13.6812 20.0222 13.8899C19.9667 14.3262 19.5781 14.6108 19.1524 14.5539C18.7268 14.497 18.4492 14.0986 18.5047 13.6622C18.5233 13.4536 18.6343 13.2638 18.8008 13.15ZM27.7019 29.1426C27.2023 32.7282 25.3518 35.8963 22.5389 38.059C19.7076 40.2217 16.2286 41.1323 12.7311 40.6201C11.6947 40.4684 10.6955 40.1838 9.73317 39.7854L19.1524 15.9577C19.1894 15.9577 19.245 15.9767 19.282 15.9767C19.8927 15.9767 20.4663 15.6921 20.8734 15.2558C25.7589 17.9307 28.4977 23.4703 27.7019 29.1426Z" fill="white"/>
<path d="M5.53246 40.2029C6.58727 40.2029 7.51254 39.4061 7.66059 38.3058C7.73461 37.7177 7.60507 37.1486 7.25347 36.6743C7.16094 36.5415 7.04991 36.4277 6.93888 36.3328L19.5596 4.42345C19.5966 4.42345 19.6336 4.42345 19.6891 4.42345C20.7439 4.42345 21.6692 3.62666 21.8172 2.52634C21.9838 1.33116 21.1696 0.211868 20.0037 0.022157C18.8379 -0.148583 17.746 0.686145 17.561 1.88132C17.45 2.65914 17.746 3.38004 18.2827 3.85431L14.9517 12.2585C14.8037 12.2395 14.6556 12.2395 14.4891 12.2206C14.4891 12.2206 14.4891 12.2206 14.4706 12.2206H14.4521C14.082 12.2206 13.6934 12.2395 13.3047 12.2775C13.1567 12.2964 13.0087 12.3154 12.8606 12.3344C12.6571 12.3534 12.4535 12.3913 12.2684 12.4292C12.0834 12.4672 11.8983 12.4862 11.7133 12.5241C11.4542 12.581 11.2877 12.619 11.2877 12.619H11.3247C9.01148 13.1691 6.84635 14.2694 5.03282 15.882C2.38654 18.2344 0.647029 21.4974 0.147383 25.064C-0.333759 28.5357 0.369448 32.0643 2.16447 35.0428C2.16447 35.0617 2.18298 35.0807 2.18298 35.0997C2.20149 35.1186 2.21999 35.1566 2.2385 35.1756L2.257 35.2135C2.33102 35.3463 2.42355 35.4601 2.49757 35.5929L2.53458 35.6498C2.77515 36.0103 3.01572 36.3518 3.2748 36.6743C3.29331 36.6932 3.31181 36.7312 3.34882 36.7502C3.44135 36.845 3.51537 36.9399 3.58939 37.0347C3.49687 37.2244 3.42284 37.4521 3.40434 37.6797C3.23779 38.8749 4.05203 39.9942 5.21787 40.1839C5.3289 40.1839 5.42143 40.2029 5.53246 40.2029ZM19.6706 1.44499C19.7076 1.44499 19.7446 1.44499 19.7816 1.44499C20.2073 1.5019 20.4848 1.90029 20.4293 2.33663C20.3738 2.77296 19.9852 3.05753 19.5596 3.00062C19.134 2.9437 18.8564 2.54531 18.9119 2.10898C18.9674 1.72955 19.3005 1.44499 19.6706 1.44499ZM4.34812 35.7637C4.32961 35.7447 4.3111 35.7257 4.2926 35.7068C4.08904 35.4412 3.86697 35.1566 3.68192 34.8531L3.64491 34.7961C3.57089 34.6823 3.49687 34.5685 3.42284 34.4547L3.38583 34.3977L3.36733 34.3788C1.72034 31.6659 1.07265 28.4408 1.51678 25.2916C1.97942 22.0665 3.55238 19.1071 5.93958 16.9823C8.28977 14.8955 11.3062 13.7193 14.3966 13.6813L5.6435 35.8016C5.25488 35.7826 4.88477 35.8585 4.57018 36.0293C4.49616 35.9344 4.42214 35.8585 4.34812 35.7637ZM4.77374 37.8695C4.82926 37.4711 5.16235 37.2055 5.53246 37.2055C5.56947 37.2055 5.60648 37.2055 5.6435 37.2055C5.84706 37.2434 6.03211 37.3383 6.14314 37.509C6.27268 37.6797 6.30969 37.8884 6.29119 38.0971C6.23567 38.5334 5.84705 38.818 5.42143 38.7611C4.99581 38.7042 4.69972 38.3058 4.77374 37.8695Z" fill="white"/>
</svg>
