<svg width="148" height="41" viewBox="0 0 148 41" fill="none" xmlns="http://www.w3.org/2000/svg">
<path d="M32.4728 8.81238H27.5112V32.0671H32.4728V8.81238Z" fill="white"/>
<path d="M36.811 8.81238H41.5143V12.3917L41.6034 12.4809C42.3561 11.2328 43.3448 10.27 44.5919 9.61027C45.9726 8.87924 47.135 8.81238 48.6137 8.81238C51.0811 8.81238 53.0274 9.57015 54.4482 10.845C55.8689 12.1243 56.5816 14.041 56.5816 16.5952V32.0671H51.6155V17.9057C51.5576 16.136 51.1791 14.8478 50.4843 14.0499C49.7895 13.252 48.6983 12.8509 47.2196 12.8509C46.3779 12.8509 45.6252 13.0024 44.9571 13.31C44.289 13.6131 43.7234 14.0366 43.2602 14.5715C42.797 15.1108 42.4318 15.7393 42.1734 16.4659C41.9107 17.1925 41.7815 17.9636 41.7815 18.7749V32.0671H36.8199V8.81238H36.811Z" fill="white"/>
<path d="M89.6954 24.5696C89.8424 26.0094 90.3902 27.0168 91.3523 27.5918C92.3098 28.1668 93.4545 28.4565 94.7906 28.4565C95.2538 28.4565 95.7838 28.4209 96.3806 28.3496C96.9774 28.2782 97.5342 28.1401 98.0553 27.9395C98.5764 27.7389 99.0039 27.4447 99.338 27.0524C99.672 26.6646 99.8234 26.152 99.7967 25.5191C99.7655 24.8861 99.5339 24.369 99.1019 23.9634C98.6654 23.5622 98.1087 23.2368 97.4273 22.9917C96.7458 22.7465 95.9664 22.537 95.0979 22.3676C94.225 22.1938 93.3431 22.0066 92.4434 21.806C91.5126 21.6054 90.6218 21.3602 89.7667 21.0705C88.9116 20.7852 88.1411 20.3929 87.4596 19.9026C86.7782 19.4123 86.2348 18.7882 85.8251 18.026C85.4198 17.2638 85.2149 16.3188 85.2149 15.1955C85.2149 13.9875 85.5133 12.9712 86.1057 12.151C86.7025 11.3309 87.4552 10.6667 88.3682 10.163C89.2812 9.65931 90.2967 9.30716 91.4146 9.10658C92.5325 8.90599 93.597 8.80347 94.6169 8.80347C95.7794 8.80347 96.8884 8.92382 97.9484 9.16898C99.0084 9.41414 99.9659 9.81086 100.821 10.3547C101.676 10.9029 102.389 11.6161 102.954 12.4898C103.52 13.3679 103.876 14.4244 104.023 15.6635H98.8436C98.612 14.4823 98.0642 13.6933 97.209 13.2877C96.3539 12.8865 95.3741 12.6815 94.2695 12.6815C93.9221 12.6815 93.5079 12.7127 93.0269 12.7662C92.5459 12.8241 92.096 12.9311 91.6774 13.0916C91.2543 13.252 90.9024 13.4794 90.6085 13.7825C90.319 14.0856 90.172 14.4823 90.172 14.9682C90.172 15.5744 90.3813 16.0647 90.8044 16.4347C91.2231 16.8091 91.7754 17.1211 92.4613 17.3618C93.1427 17.607 93.9221 17.8165 94.7906 17.9859C95.6636 18.1597 96.5588 18.347 97.4896 18.5475C98.3893 18.7481 99.2756 18.9933 100.144 19.283C101.017 19.5728 101.792 19.9606 102.473 20.4509C103.155 20.9412 103.707 21.5608 104.13 22.3097C104.549 23.0585 104.763 23.9812 104.763 25.0733C104.763 26.3972 104.46 27.5205 103.85 28.4432C103.239 29.3659 102.447 30.1147 101.476 30.6897C100.505 31.2648 99.4226 31.6838 98.2334 31.9423C97.0442 32.2008 95.8684 32.3301 94.706 32.3301C93.2852 32.3301 91.9713 32.1696 90.7644 31.8531C89.5574 31.5367 88.5152 31.0553 87.6289 30.4089C86.7426 29.7626 86.0478 28.9558 85.54 27.993C85.0323 27.0301 84.7651 25.8846 84.7339 24.5607H89.6954V24.5696Z" fill="white"/>
<path d="M104.411 8.81238H109.854L115.991 26.3615H116.08L122.102 8.81238H127.281L118.213 33.2885C117.808 34.3048 117.407 35.2765 117.015 36.2081C116.623 37.1353 116.142 37.9599 115.577 38.6686C115.011 39.3818 114.308 39.9479 113.466 40.3669C112.624 40.7859 111.551 40.9999 110.246 40.9999C109.083 40.9999 107.939 40.9108 106.807 40.7369V36.5513C107.213 36.6093 107.605 36.6761 107.983 36.7475C108.362 36.8188 108.754 36.8589 109.159 36.8589C109.738 36.8589 110.219 36.7876 110.597 36.6405C110.976 36.4934 111.288 36.2839 111.533 36.0075C111.778 35.7312 111.992 35.4058 112.165 35.0269C112.339 34.648 112.499 34.2112 112.642 33.7208L113.207 31.978L104.411 8.81238Z" fill="white"/>
<path d="M132.742 24.5161C132.889 25.9514 133.437 26.9544 134.399 27.5294C135.356 28.1044 136.501 28.3897 137.837 28.3897C138.3 28.3897 138.83 28.354 139.427 28.2827C140.024 28.2114 140.581 28.0732 141.102 27.8726C141.623 27.672 142.05 27.3778 142.384 26.99C142.718 26.6022 142.87 26.0941 142.843 25.4611C142.812 24.8281 142.58 24.3155 142.148 23.9144C141.712 23.5132 141.155 23.1878 140.474 22.9471C139.792 22.7019 139.013 22.4969 138.144 22.323C137.271 22.1492 136.39 21.9664 135.49 21.7658C134.559 21.5653 133.668 21.3201 132.813 21.0348C131.958 20.7495 131.187 20.3617 130.506 19.8714C129.825 19.3855 129.281 18.7615 128.871 17.9993C128.466 17.2415 128.261 16.301 128.261 15.1821C128.261 13.9786 128.56 12.9668 129.152 12.151C129.749 11.3353 130.502 10.6756 131.415 10.1719C132.328 9.66822 133.343 9.32053 134.461 9.11549C135.579 8.9149 136.643 8.81238 137.663 8.81238C138.826 8.81238 139.935 8.93273 140.995 9.17789C142.055 9.42305 143.012 9.81531 143.867 10.3591C144.723 10.9029 145.435 11.6161 146.001 12.4898C146.566 13.3635 146.923 14.4199 147.07 15.6546H141.89C141.658 14.4778 141.111 13.6889 140.255 13.2877C139.4 12.8865 138.42 12.6859 137.316 12.6859C136.969 12.6859 136.554 12.7127 136.073 12.7706C135.592 12.8286 135.142 12.9356 134.724 13.0916C134.301 13.2476 133.949 13.4794 133.655 13.778C133.365 14.0811 133.218 14.4734 133.218 14.9593C133.218 15.561 133.428 16.0513 133.851 16.4213C134.269 16.7957 134.822 17.1033 135.508 17.3485C136.189 17.5936 136.969 17.7987 137.837 17.9725C138.71 18.1464 139.605 18.3291 140.536 18.5297C141.436 18.7303 142.322 18.9755 143.19 19.2607C144.063 19.546 144.838 19.9338 145.52 20.4241C146.201 20.9145 146.754 21.5296 147.177 22.274C147.595 23.0184 147.809 23.9366 147.809 25.0287C147.809 26.3481 147.506 27.467 146.896 28.3852C146.286 29.3035 145.493 30.0479 144.522 30.6229C143.551 31.1979 142.469 31.6124 141.28 31.871C140.091 32.1295 138.915 32.2588 137.752 32.2588C136.332 32.2588 135.018 32.1028 133.811 31.7863C132.604 31.4698 131.562 30.9884 130.675 30.3465C129.789 29.7002 129.094 28.8978 128.586 27.935C128.079 26.9722 127.811 25.8355 127.78 24.5161H132.742Z" fill="white"/>
<path d="M71.1986 8.65198C64.6604 8.65198 59.3604 13.9564 59.3604 20.5C59.3604 27.0436 64.6604 32.348 71.1986 32.348C77.7368 32.348 83.0369 27.0436 83.0369 20.5C83.0324 13.9564 77.7324 8.65198 71.1986 8.65198ZM71.1986 27.7701C67.1946 27.7701 63.9344 24.5073 63.9344 20.5C63.9344 16.4927 67.1946 13.2298 71.1986 13.2298C75.2026 13.2298 78.4628 16.4927 78.4628 20.5C78.4628 24.5073 75.2026 27.7701 71.1986 27.7701Z" fill="white"/>
<path d="M24.2378 20.5178C24.2378 20.5089 24.2378 20.5044 24.2378 20.4955C24.2378 20.4866 24.2378 20.4821 24.2378 20.4732V0.521484H20.0957V11.4958C17.8643 9.58356 14.9115 8.48256 11.7003 8.66978C5.80786 9.00855 1.00218 13.7602 0.592427 19.653C0.115868 26.5755 5.58516 32.3391 12.3995 32.3391C18.8976 32.3391 24.171 27.097 24.2333 20.6069L24.2378 20.6114V20.5178ZM12.9963 27.7434C8.52468 28.1 4.80574 24.378 5.16205 19.9027C5.44264 16.3812 8.29309 13.5284 11.8116 13.2476C16.2832 12.891 20.0022 16.613 19.6459 21.0883C19.3653 24.6098 16.5148 27.4626 12.9963 27.7434Z" fill="white"/>
<path d="M32.433 2.96425C32.433 4.31041 31.3418 5.4025 29.9968 5.4025C28.6517 5.4025 27.5605 4.31041 27.5605 2.96425C27.5605 1.61809 28.6517 0.526001 29.9968 0.526001C31.3418 0.526001 32.433 1.61809 32.433 2.96425Z" fill="white"/>
</svg>
