<svg width="148" height="41" viewBox="0 0 148 41" fill="none" xmlns="http://www.w3.org/2000/svg">
<path d="M32.4713 8.8125H27.5098V32.0672H32.4713V8.8125Z" fill="#FF6900"/>
<path d="M36.8105 8.8125H41.5138V12.3919L41.6029 12.481C42.3556 11.2329 43.3443 10.2701 44.5914 9.61039C45.9721 8.87936 47.1345 8.8125 48.6132 8.8125C51.0806 8.8125 53.0269 9.57027 54.4477 10.8451C55.8685 12.1244 56.5811 14.0411 56.5811 16.5953V32.0672H51.6151V17.9058C51.5572 16.1362 51.1786 14.8479 50.4838 14.0501C49.789 13.2522 48.6978 12.851 47.2191 12.851C46.3774 12.851 45.6247 13.0025 44.9566 13.3101C44.2885 13.6132 43.7229 14.0367 43.2597 14.5716C42.7965 15.1109 42.4313 15.7394 42.173 16.466C41.9102 17.1926 41.781 17.9637 41.781 18.775V32.0672H36.8195V8.8125H36.8105Z" fill="#FF6900"/>
<path d="M89.694 24.5696C89.8409 26.0094 90.3888 27.0168 91.3508 27.5918C92.3084 28.1668 93.453 28.4565 94.7891 28.4565C95.2523 28.4565 95.7823 28.4209 96.3792 28.3496C96.976 28.2782 97.5327 28.1401 98.0538 27.9395C98.5749 27.7389 99.0025 27.4447 99.3365 27.0524C99.6705 26.6646 99.822 26.152 99.7952 25.5191C99.7641 24.8861 99.5325 24.369 99.1004 23.9634C98.664 23.5622 98.1072 23.2368 97.4258 22.9917C96.7444 22.7465 95.9649 22.537 95.0965 22.3676C94.2235 22.1938 93.3417 22.0066 92.442 21.806C91.5111 21.6054 90.6204 21.3602 89.7652 21.0705C88.9101 20.7852 88.1396 20.3929 87.4582 19.9026C86.7767 19.4123 86.2334 18.7882 85.8236 18.026C85.4183 17.2638 85.2134 16.3188 85.2134 15.1955C85.2134 13.9875 85.5118 12.9712 86.1042 12.151C86.701 11.3309 87.4537 10.6667 88.3667 10.163C89.2798 9.65931 90.2952 9.30716 91.4131 9.10658C92.5311 8.90599 93.5955 8.80347 94.6154 8.80347C95.7779 8.80347 96.8869 8.92382 97.9469 9.16898C99.0069 9.41414 99.9645 9.81086 100.82 10.3547C101.675 10.9029 102.387 11.6161 102.953 12.4898C103.519 13.3679 103.875 14.4244 104.022 15.6635H98.8421C98.6105 14.4823 98.0627 13.6933 97.2076 13.2877C96.3524 12.8865 95.3726 12.6815 94.268 12.6815C93.9207 12.6815 93.5064 12.7127 93.0254 12.7662C92.5444 12.8241 92.0946 12.9311 91.6759 13.0916C91.2528 13.252 90.901 13.4794 90.607 13.7825C90.3175 14.0856 90.1705 14.4823 90.1705 14.9682C90.1705 15.5744 90.3799 16.0647 90.803 16.4347C91.2216 16.8091 91.7739 17.1211 92.4598 17.3618C93.1412 17.607 93.9206 17.8165 94.7891 17.9859C95.6621 18.1597 96.5573 18.347 97.4882 18.5475C98.3878 18.7481 99.2741 18.9933 100.143 19.283C101.016 19.5728 101.791 19.9606 102.472 20.4509C103.153 20.9412 103.706 21.5608 104.129 22.3097C104.547 23.0585 104.761 23.9812 104.761 25.0733C104.761 26.3972 104.458 27.5205 103.848 28.4432C103.238 29.3659 102.445 30.1147 101.474 30.6897C100.503 31.2648 99.4211 31.6838 98.2319 31.9423C97.0428 32.2008 95.867 32.3301 94.7045 32.3301C93.2837 32.3301 91.9699 32.1696 90.7629 31.8531C89.5559 31.5367 88.5137 31.0553 87.6274 30.4089C86.7411 29.7626 86.0463 28.9558 85.5386 27.993C85.0308 27.0301 84.7636 25.8846 84.7324 24.5607H89.694V24.5696Z" fill="#FF6900"/>
<path d="M104.41 8.8125H109.853L115.99 26.3616H116.079L122.101 8.8125H127.28L118.213 33.2886C117.807 34.3049 117.406 35.2766 117.014 36.2082C116.623 37.1354 116.142 37.96 115.576 38.6688C115.01 39.382 114.307 39.9481 113.465 40.3671C112.623 40.7861 111.55 41 110.245 41C109.082 41 107.938 40.9109 106.806 40.737V36.5515C107.212 36.6094 107.604 36.6763 107.982 36.7476C108.361 36.8189 108.753 36.859 109.158 36.859C109.737 36.859 110.218 36.7877 110.597 36.6406C110.975 36.4935 111.287 36.284 111.532 36.0076C111.777 35.7313 111.991 35.4059 112.164 35.027C112.338 34.6481 112.498 34.2113 112.641 33.721L113.206 31.9781L104.41 8.8125Z" fill="#FF6900"/>
<path d="M132.741 24.5162C132.888 25.9516 133.436 26.9545 134.398 27.5295C135.355 28.1045 136.5 28.3898 137.836 28.3898C138.299 28.3898 138.829 28.3541 139.426 28.2828C140.023 28.2115 140.58 28.0733 141.101 27.8727C141.622 27.6721 142.049 27.3779 142.383 26.9901C142.717 26.6023 142.869 26.0942 142.842 25.4612C142.811 24.8283 142.579 24.3157 142.147 23.9145C141.711 23.5133 141.154 23.1879 140.473 22.9472C139.791 22.702 139.012 22.497 138.143 22.3232C137.27 22.1493 136.389 21.9666 135.489 21.766C134.558 21.5654 133.667 21.3202 132.812 21.0349C131.957 20.7497 131.186 20.3619 130.505 19.8715C129.824 19.3857 129.28 18.7616 128.87 17.9994C128.465 17.2416 128.26 16.3011 128.26 15.1823C128.26 13.9787 128.559 12.9669 129.151 12.1512C129.748 11.3354 130.501 10.6757 131.414 10.172C132.327 9.66834 133.342 9.32065 134.46 9.11561C135.578 8.91502 136.642 8.8125 137.662 8.8125C138.825 8.8125 139.934 8.93285 140.994 9.17801C142.054 9.42318 143.011 9.81544 143.866 10.3592C144.722 10.9031 145.434 11.6163 146 12.4899C146.566 13.3636 146.922 14.42 147.069 15.6547H141.889C141.657 14.478 141.11 13.689 140.254 13.2878C139.399 12.8866 138.419 12.6861 137.315 12.6861C136.968 12.6861 136.553 12.7128 136.072 12.7708C135.591 12.8287 135.141 12.9357 134.723 13.0917C134.3 13.2477 133.948 13.4795 133.654 13.7781C133.364 14.0813 133.217 14.4735 133.217 14.9594C133.217 15.5611 133.427 16.0515 133.85 16.4214C134.269 16.7959 134.821 17.1034 135.507 17.3486C136.188 17.5938 136.968 17.7988 137.836 17.9726C138.709 18.1465 139.604 18.3292 140.535 18.5298C141.435 18.7304 142.321 18.9756 143.19 19.2609C144.062 19.5461 144.837 19.9339 145.519 20.4243C146.2 20.9146 146.753 21.5297 147.176 22.2741C147.594 23.0185 147.808 23.9368 147.808 25.0289C147.808 26.3483 147.505 27.4671 146.895 28.3853C146.285 29.3036 145.492 30.048 144.521 30.623C143.55 31.198 142.468 31.6126 141.279 31.8711C140.09 32.1296 138.914 32.2589 137.751 32.2589C136.331 32.2589 135.017 32.1029 133.81 31.7864C132.603 31.4699 131.561 30.9885 130.674 30.3466C129.788 29.7003 129.093 28.898 128.585 27.9351C128.078 26.9723 127.81 25.8357 127.779 24.5162H132.741Z" fill="#FF6900"/>
<path d="M71.1976 8.65186C64.6594 8.65186 59.3594 13.9563 59.3594 20.4999C59.3594 27.0435 64.6594 32.3479 71.1976 32.3479C77.7358 32.3479 83.0359 27.0435 83.0359 20.4999C83.0314 13.9563 77.7314 8.65186 71.1976 8.65186ZM71.1976 27.77C67.1936 27.77 63.9335 24.5071 63.9335 20.4999C63.9335 16.4926 67.1936 13.2297 71.1976 13.2297C75.2016 13.2297 78.4618 16.4926 78.4618 20.4999C78.4618 24.5071 75.2016 27.77 71.1976 27.77Z" fill="#FF6900"/>
<path d="M24.2368 20.5178C24.2368 20.5089 24.2368 20.5044 24.2368 20.4955C24.2368 20.4866 24.2368 20.4821 24.2368 20.4732V0.521484H20.0947V11.4958C17.8634 9.58356 14.9105 8.48256 11.6993 8.66978C5.80688 9.00855 1.0012 13.7602 0.59145 19.653C0.114891 26.5755 5.58418 32.3391 12.3985 32.3391C18.8967 32.3391 24.17 27.097 24.2323 20.6069L24.2368 20.6114V20.5178ZM12.9953 27.7434C8.52371 28.1 4.80477 24.378 5.16107 19.9027C5.44166 16.3812 8.29211 13.5284 11.8106 13.2476C16.2823 12.891 20.0012 16.613 19.6449 21.0883C19.3643 24.6098 16.5139 27.4626 12.9953 27.7434Z" fill="#FF6900"/>
<path d="M32.4311 2.96413C32.4311 4.31029 31.3399 5.40237 29.9948 5.40237C28.6498 5.40237 27.5586 4.31029 27.5586 2.96413C27.5586 1.61796 28.6498 0.525879 29.9948 0.525879C31.3399 0.525879 32.4311 1.61796 32.4311 2.96413Z" fill="#FF6900"/>
</svg>
