<svg width="20" height="20" viewBox="0 0 20 20" fill="none" xmlns="http://www.w3.org/2000/svg">
<path fill-rule="evenodd" clip-rule="evenodd" d="M14.3248 12.899L19.7048 18.279C19.8939 18.4682 20 18.7248 20 18.9923C19.9999 19.2599 19.8935 19.5164 19.7043 19.7055C19.515 19.8946 19.2584 20.0008 18.9909 20.0007C18.7234 20.0006 18.4669 19.8942 18.2778 19.705L12.8978 14.325C11.2895 15.5707 9.26705 16.1569 7.24189 15.9643C5.21674 15.7718 3.341 14.815 1.99625 13.2886C0.6515 11.7622 -0.0612416 9.7808 0.00301976 7.74753C0.0672812 5.71427 0.903718 3.78185 2.34217 2.34339C3.78063 0.904939 5.71305 0.0685019 7.74631 0.00424047C9.77958 -0.0600209 11.761 0.652721 13.2874 1.99747C14.8138 3.34222 15.7706 5.21796 15.9631 7.24312C16.1556 9.26827 15.5694 11.2907 14.3238 12.899H14.3248ZM7.99977 14C9.59107 14 11.1172 13.3678 12.2424 12.2426C13.3676 11.1174 13.9998 9.59129 13.9998 7.99999C13.9998 6.40869 13.3676 4.88257 12.2424 3.75735C11.1172 2.63213 9.59107 1.99999 7.99977 1.99999C6.40847 1.99999 4.88235 2.63213 3.75713 3.75735C2.63191 4.88257 1.99977 6.40869 1.99977 7.99999C1.99977 9.59129 2.63191 11.1174 3.75713 12.2426C4.88235 13.3678 6.40847 14 7.99977 14Z" fill="white"/>
</svg>
