<svg width="1004" height="974" viewBox="0 0 1004 974" fill="none" xmlns="http://www.w3.org/2000/svg">
<g style="mix-blend-mode:overlay">
<path opacity="0.0526316" d="M78.0063 786.404C99.1907 814.58 166.898 861.728 268.254 824.917C394.948 778.903 443.947 656.934 557.024 593.691C640.482 547.013 864.74 476.946 993.691 554.371" stroke="url(#paint0_radial_461_183)"/>
<path opacity="0.105263" d="M57.1108 727.336C75.2331 757.571 137.64 811.536 242.289 785.518C373.1 752.996 434.585 636.815 553.654 585.734C641.537 548.033 871.891 501.785 992.041 592.26" stroke="url(#paint1_radial_461_183)"/>
<path opacity="0.157895" d="M41.325 667.473C56.1867 699.436 112.609 759.627 219.405 744.687C352.9 726.012 426.196 616.892 549.954 578.534C641.297 550.223 875.226 528.299 985.257 630.834" stroke="url(#paint2_radial_461_183)"/>
<path opacity="0.210526" d="M30.704 607.35C42.1422 640.691 91.9619 706.448 199.735 702.75C334.452 698.127 418.755 597.264 545.846 572.048C639.649 553.437 874.589 556.078 973.296 669.549" stroke="url(#paint3_radial_461_183)"/>
<path opacity="0.263158" d="M25.2465 547.51C33.1359 581.864 75.8071 652.467 183.377 660.05C317.839 669.53 412.227 578.029 541.258 566.232C636.493 557.525 869.869 584.702 956.172 707.866" stroke="url(#paint4_radial_461_183)"/>
<path opacity="0.315789" d="M24.895 488.491C29.1492 523.481 64.2044 598.156 170.392 616.939C303.126 640.418 406.564 559.281 536.122 561.032C631.746 562.324 861.002 613.74 933.954 745.247" stroke="url(#paint5_radial_461_183)"/>
<path opacity="0.368421" d="M29.5516 430.826C30.1189 466.065 57.1656 543.982 160.814 573.74C290.374 610.938 401.752 541.046 530.428 556.306C625.401 567.568 848.038 642.618 906.825 781.005" stroke="url(#paint6_radial_461_183)"/>
<path opacity="0.421053" d="M39.0192 375.024C35.8976 410.128 54.6471 490.441 154.618 530.863C279.582 581.389 397.663 523.517 524.043 552.134C617.321 573.256 830.895 671.149 874.888 814.915" stroke="url(#paint7_radial_461_183)"/>
<path opacity="0.473684" d="M53.0655 321.567C46.2958 356.159 56.5524 438.008 151.736 488.676C270.717 552.01 394.173 506.799 516.848 548.488C607.392 579.257 809.535 698.979 838.265 846.586" stroke="url(#paint8_radial_461_183)"/>
<path opacity="0.526316" d="M71.4622 270.945C61.1127 304.639 62.7549 387.112 152.12 447.449C263.826 522.869 391.333 490.806 508.978 545.086C595.808 585.148 784.325 725.337 797.465 875.138" stroke="url(#paint9_radial_461_183)"/>
<path opacity="0.578947" d="M93.8704 223.584C80.0545 256.013 73.0643 338.205 155.631 407.549C258.839 494.229 389 475.667 500.325 541.942C582.491 590.859 755.317 749.979 752.721 900.332" stroke="url(#paint10_radial_461_183)"/>
<path opacity="0.631579" d="M119.926 179.889C102.796 210.696 87.2495 291.708 162.113 369.3C255.693 466.29 387.081 461.431 490.867 538.976C567.468 596.211 722.71 772.519 704.407 921.778" stroke="url(#paint11_radial_461_183)"/>
<path opacity="0.684211" d="M149.228 140.219C128.97 169.067 105.038 248.011 171.379 333.001C254.304 439.238 385.481 448.135 480.59 536.101C550.787 601.026 686.743 792.591 652.934 939.119" stroke="url(#paint12_radial_461_183)"/>
<path opacity="0.736842" d="M181.336 104.89C158.172 131.463 126.117 207.474 183.208 298.93C254.571 413.251 384.099 435.807 469.489 533.23C532.513 605.135 647.695 809.857 598.75 952.05" stroke="url(#paint13_radial_461_183)"/>
<path opacity="0.789474" d="M215.78 74.174C189.965 98.181 150.138 170.426 197.353 267.347C256.372 388.499 382.832 424.466 457.568 530.278C512.728 608.375 605.873 824.012 542.328 960.311" stroke="url(#paint14_radial_461_183)"/>
<path opacity="0.842105" d="M252.067 48.2879C223.883 69.4658 176.721 137.153 213.543 238.477C259.571 365.133 381.577 414.118 444.84 527.16C491.532 610.593 561.62 834.782 484.172 963.694" stroke="url(#paint15_radial_461_183)"/>
<path opacity="0.894737" d="M289.681 27.399C259.437 45.5158 205.455 107.904 231.481 212.521C264.014 343.292 380.23 404.758 431.326 523.791C469.039 611.647 515.301 841.932 424.799 962.045" stroke="url(#paint16_radial_461_183)"/>
<path opacity="0.947368" d="M328.092 11.6179C296.119 26.475 235.91 82.8802 250.855 189.644C269.535 323.098 378.689 396.372 417.058 520.092C445.378 611.408 467.309 845.265 364.743 955.263" stroke="url(#paint17_radial_461_183)"/>
<path d="M366.761 1C333.41 12.4347 267.633 62.2393 271.333 169.98C275.957 304.655 376.851 388.933 402.074 515.986C420.691 609.76 418.049 844.628 304.544 943.305" stroke="url(#paint18_radial_461_183)"/>
</g>
<defs>
<radialGradient id="paint0_radial_461_183" cx="0" cy="0" r="1" gradientUnits="userSpaceOnUse" gradientTransform="translate(534.207 665.337) rotate(-17.9949) scale(471.282 69.7627)">
<stop stop-color="#E55436"/>
<stop offset="1" stop-color="white"/>
</radialGradient>
<radialGradient id="paint1_radial_461_183" cx="0" cy="0" r="1" gradientUnits="userSpaceOnUse" gradientTransform="translate(523.471 654.603) rotate(-11.9965) scale(471.29 69.7616)">
<stop stop-color="#E55436"/>
<stop offset="1" stop-color="white"/>
</radialGradient>
<radialGradient id="paint2_radial_461_183" cx="0" cy="0" r="1" gradientUnits="userSpaceOnUse" gradientTransform="translate(512.736 643.872) rotate(-5.99819) scale(471.295 69.7609)">
<stop stop-color="#E55436"/>
<stop offset="1" stop-color="white"/>
</radialGradient>
<radialGradient id="paint3_radial_461_183" cx="0" cy="0" r="1" gradientUnits="userSpaceOnUse" gradientTransform="translate(502 633.139) scale(471.296 69.7607)">
<stop stop-color="#E55436"/>
<stop offset="1" stop-color="white"/>
</radialGradient>
<radialGradient id="paint4_radial_461_183" cx="0" cy="0" r="1" gradientUnits="userSpaceOnUse" gradientTransform="translate(491.264 622.407) rotate(5.99819) scale(471.295 69.7609)">
<stop stop-color="#E55436"/>
<stop offset="1" stop-color="white"/>
</radialGradient>
<radialGradient id="paint5_radial_461_183" cx="0" cy="0" r="1" gradientUnits="userSpaceOnUse" gradientTransform="translate(480.529 611.674) rotate(11.9965) scale(471.29 69.7616)">
<stop stop-color="#E55436"/>
<stop offset="1" stop-color="white"/>
</radialGradient>
<radialGradient id="paint6_radial_461_183" cx="0" cy="0" r="1" gradientUnits="userSpaceOnUse" gradientTransform="translate(469.831 600.865) rotate(17.9846) scale(471.282 69.7627)">
<stop stop-color="#E55436"/>
<stop offset="1" stop-color="white"/>
</radialGradient>
<radialGradient id="paint7_radial_461_183" cx="0" cy="0" r="1" gradientUnits="userSpaceOnUse" gradientTransform="translate(459.115 590.118) rotate(23.9805) scale(471.272 69.7642)">
<stop stop-color="#E55436"/>
<stop offset="1" stop-color="white"/>
</radialGradient>
<radialGradient id="paint8_radial_461_183" cx="0" cy="0" r="1" gradientUnits="userSpaceOnUse" gradientTransform="translate(448.322 579.477) rotate(29.9925) scale(471.26 69.766)">
<stop stop-color="#E55436"/>
<stop offset="1" stop-color="white"/>
</radialGradient>
<radialGradient id="paint9_radial_461_183" cx="0" cy="0" r="1" gradientUnits="userSpaceOnUse" gradientTransform="translate(437.586 568.745) rotate(35.9917) scale(471.247 69.768)">
<stop stop-color="#E55436"/>
<stop offset="1" stop-color="white"/>
</radialGradient>
<radialGradient id="paint10_radial_461_183" cx="0" cy="0" r="1" gradientUnits="userSpaceOnUse" gradientTransform="translate(426.85 558.011) rotate(41.9913) scale(471.232 69.7702)">
<stop stop-color="#E55436"/>
<stop offset="1" stop-color="white"/>
</radialGradient>
<radialGradient id="paint11_radial_461_183" cx="0" cy="0" r="1" gradientUnits="userSpaceOnUse" gradientTransform="translate(416.115 547.28) rotate(47.9913) scale(471.217 69.7724)">
<stop stop-color="#E55436"/>
<stop offset="1" stop-color="white"/>
</radialGradient>
<radialGradient id="paint12_radial_461_183" cx="0" cy="0" r="1" gradientUnits="userSpaceOnUse" gradientTransform="translate(405.379 536.547) rotate(53.9917) scale(471.202 69.7745)">
<stop stop-color="#E55436"/>
<stop offset="1" stop-color="white"/>
</radialGradient>
<radialGradient id="paint13_radial_461_183" cx="0" cy="0" r="1" gradientUnits="userSpaceOnUse" gradientTransform="translate(394.643 525.814) rotate(59.9925) scale(471.189 69.7766)">
<stop stop-color="#E55436"/>
<stop offset="1" stop-color="white"/>
</radialGradient>
<radialGradient id="paint14_radial_461_183" cx="0" cy="0" r="1" gradientUnits="userSpaceOnUse" gradientTransform="translate(383.908 515.083) rotate(65.9935) scale(471.176 69.7784)">
<stop stop-color="#E55436"/>
<stop offset="1" stop-color="white"/>
</radialGradient>
<radialGradient id="paint15_radial_461_183" cx="0" cy="0" r="1" gradientUnits="userSpaceOnUse" gradientTransform="translate(373.172 504.35) rotate(71.9949) scale(471.166 69.7799)">
<stop stop-color="#E55436"/>
<stop offset="1" stop-color="white"/>
</radialGradient>
<radialGradient id="paint16_radial_461_183" cx="0" cy="0" r="1" gradientUnits="userSpaceOnUse" gradientTransform="translate(362.436 493.618) rotate(77.9965) scale(471.159 69.781)">
<stop stop-color="#E55436"/>
<stop offset="1" stop-color="white"/>
</radialGradient>
<radialGradient id="paint17_radial_461_183" cx="0" cy="0" r="1" gradientUnits="userSpaceOnUse" gradientTransform="translate(351.701 482.885) rotate(83.9982) scale(471.154 69.7817)">
<stop stop-color="#E55436"/>
<stop offset="1" stop-color="white"/>
</radialGradient>
<radialGradient id="paint18_radial_461_183" cx="0" cy="0" r="1" gradientUnits="userSpaceOnUse" gradientTransform="translate(340.965 472.153) rotate(90) scale(471.153 69.7819)">
<stop stop-color="#E55436"/>
<stop offset="1" stop-color="white"/>
</radialGradient>
</defs>
</svg>
