<svg width="1004" height="700" viewBox="0 0 1004 700" fill="none" xmlns="http://www.w3.org/2000/svg">
<g style="mix-blend-mode:overlay">
<path opacity="0.0526316" d="M78.0063 674.514C99.1907 702.689 166.898 749.837 268.254 713.027C394.948 667.013 443.947 545.043 557.024 481.8C640.482 435.122 864.74 365.056 993.691 442.48" stroke="url(#paint0_radial_56_677)"/>
<path opacity="0.105263" d="M57.1109 615.446C75.2332 645.681 137.64 699.646 242.289 673.628C373.1 641.105 434.585 524.924 553.654 473.844C641.537 436.142 871.891 389.894 992.041 480.369" stroke="url(#paint1_radial_56_677)"/>
<path opacity="0.157895" d="M41.325 555.583C56.1867 587.546 112.609 647.736 219.405 632.796C352.9 614.121 426.196 505.001 549.954 466.643C641.297 438.332 875.226 416.408 985.257 518.943" stroke="url(#paint2_radial_56_677)"/>
<path opacity="0.210526" d="M30.704 495.46C42.1422 528.8 91.9619 594.558 199.735 590.859C334.452 586.236 418.755 485.373 545.846 460.158C639.649 441.546 874.589 444.188 973.296 557.658" stroke="url(#paint3_radial_56_677)"/>
<path opacity="0.263158" d="M25.2465 435.62C33.1359 469.973 75.8071 540.576 183.377 548.16C317.839 557.64 412.227 466.139 541.258 454.342C636.493 445.635 869.869 472.812 956.172 595.976" stroke="url(#paint4_radial_56_677)"/>
<path opacity="0.315789" d="M24.895 376.6C29.1492 411.59 64.2044 486.265 170.392 505.048C303.126 528.527 406.564 447.39 536.122 449.141C631.746 450.434 861.002 501.849 933.953 633.356" stroke="url(#paint5_radial_56_677)"/>
<path opacity="0.368421" d="M29.5516 318.936C30.1189 354.175 57.1656 432.092 160.814 461.85C290.374 499.047 401.752 429.155 530.428 444.415C625.401 455.678 848.038 530.727 906.825 669.115" stroke="url(#paint6_radial_56_677)"/>
<path opacity="0.421053" d="M39.0192 263.134C35.8976 298.238 54.6472 378.551 154.618 418.972C279.582 469.499 397.663 411.627 524.043 440.244C617.321 461.365 830.895 559.259 874.888 703.024" stroke="url(#paint7_radial_56_677)"/>
<path opacity="0.473684" d="M53.0655 209.677C46.2958 244.268 56.5524 326.118 151.736 376.785C270.717 440.119 394.173 394.908 516.848 436.597C607.392 467.367 809.535 587.088 838.265 734.695" stroke="url(#paint8_radial_56_677)"/>
<path opacity="0.526316" d="M71.4623 159.054C61.1128 192.749 62.755 275.222 152.12 335.558C263.826 410.978 391.333 378.916 508.978 433.195C595.808 473.258 784.325 613.446 797.465 763.247" stroke="url(#paint9_radial_56_677)"/>
<path opacity="0.578947" d="M93.8703 111.694C80.0544 144.122 73.0642 226.315 155.631 295.659C258.839 382.339 389 363.776 500.325 430.052C582.491 478.968 755.317 638.088 752.721 788.442" stroke="url(#paint10_radial_56_677)"/>
<path opacity="0.631579" d="M119.927 67.9984C102.796 98.8054 87.2496 179.817 162.113 257.41C255.693 354.4 387.082 349.54 490.867 427.086C567.468 484.32 722.71 660.629 704.407 809.887" stroke="url(#paint11_radial_56_677)"/>
<path opacity="0.684211" d="M149.228 28.3282C128.97 57.1763 105.038 136.12 171.379 221.11C254.304 327.348 385.481 336.244 480.59 424.21C550.787 489.136 686.743 680.701 652.934 827.229" stroke="url(#paint12_radial_56_677)"/>
<path opacity="0.736842" d="M181.336 -7.00071C158.172 19.5725 126.117 95.583 183.208 187.04C254.571 301.361 384.099 323.916 469.489 421.339C532.513 493.244 647.694 697.967 598.75 840.159" stroke="url(#paint13_radial_56_677)"/>
<path opacity="0.789474" d="M215.78 -37.7165C189.965 -13.7095 150.138 58.5351 197.353 155.457C256.372 276.609 382.832 312.576 457.568 418.388C512.728 496.485 605.873 712.122 542.328 848.421" stroke="url(#paint14_radial_56_677)"/>
<path opacity="0.842105" d="M252.067 -63.6027C223.883 -42.4248 176.721 25.2622 213.543 126.587C259.571 253.242 381.577 302.227 444.84 415.269C491.532 498.702 561.62 722.891 484.172 851.803" stroke="url(#paint15_radial_56_677)"/>
<path opacity="0.894737" d="M289.681 -84.4917C259.437 -66.3749 205.455 -3.98701 231.481 100.63C264.014 231.402 380.23 292.867 431.326 411.901C469.039 499.756 515.301 730.041 424.799 850.154" stroke="url(#paint16_radial_56_677)"/>
<path opacity="0.947368" d="M328.092 -100.273C296.119 -85.4156 235.91 -29.0104 250.855 77.7533C269.535 211.208 378.689 284.481 417.058 408.202C445.378 499.517 467.309 733.374 364.743 843.372" stroke="url(#paint17_radial_56_677)"/>
<path d="M366.761 -110.891C333.41 -99.4558 267.633 -49.6513 271.333 58.0891C275.957 192.765 376.851 277.043 402.074 404.095C420.691 497.869 418.049 732.737 304.544 831.415" stroke="url(#paint18_radial_56_677)"/>
</g>
<defs>
<radialGradient id="paint0_radial_56_677" cx="0" cy="0" r="1" gradientUnits="userSpaceOnUse" gradientTransform="translate(534.207 553.446) rotate(-17.9949) scale(471.282 69.7627)">
<stop stop-color="#E55436"/>
<stop offset="1" stop-color="white"/>
</radialGradient>
<radialGradient id="paint1_radial_56_677" cx="0" cy="0" r="1" gradientUnits="userSpaceOnUse" gradientTransform="translate(523.471 542.713) rotate(-11.9965) scale(471.29 69.7616)">
<stop stop-color="#E55436"/>
<stop offset="1" stop-color="white"/>
</radialGradient>
<radialGradient id="paint2_radial_56_677" cx="0" cy="0" r="1" gradientUnits="userSpaceOnUse" gradientTransform="translate(512.736 531.981) rotate(-5.99819) scale(471.295 69.7609)">
<stop stop-color="#E55436"/>
<stop offset="1" stop-color="white"/>
</radialGradient>
<radialGradient id="paint3_radial_56_677" cx="0" cy="0" r="1" gradientUnits="userSpaceOnUse" gradientTransform="translate(502 521.248) scale(471.296 69.7607)">
<stop stop-color="#E55436"/>
<stop offset="1" stop-color="white"/>
</radialGradient>
<radialGradient id="paint4_radial_56_677" cx="0" cy="0" r="1" gradientUnits="userSpaceOnUse" gradientTransform="translate(491.264 510.516) rotate(5.99819) scale(471.295 69.7609)">
<stop stop-color="#E55436"/>
<stop offset="1" stop-color="white"/>
</radialGradient>
<radialGradient id="paint5_radial_56_677" cx="0" cy="0" r="1" gradientUnits="userSpaceOnUse" gradientTransform="translate(480.529 499.784) rotate(11.9965) scale(471.29 69.7616)">
<stop stop-color="#E55436"/>
<stop offset="1" stop-color="white"/>
</radialGradient>
<radialGradient id="paint6_radial_56_677" cx="0" cy="0" r="1" gradientUnits="userSpaceOnUse" gradientTransform="translate(469.831 488.975) rotate(17.9846) scale(471.282 69.7627)">
<stop stop-color="#E55436"/>
<stop offset="1" stop-color="white"/>
</radialGradient>
<radialGradient id="paint7_radial_56_677" cx="0" cy="0" r="1" gradientUnits="userSpaceOnUse" gradientTransform="translate(459.115 478.228) rotate(23.9805) scale(471.272 69.7642)">
<stop stop-color="#E55436"/>
<stop offset="1" stop-color="white"/>
</radialGradient>
<radialGradient id="paint8_radial_56_677" cx="0" cy="0" r="1" gradientUnits="userSpaceOnUse" gradientTransform="translate(448.322 467.587) rotate(29.9925) scale(471.26 69.766)">
<stop stop-color="#E55436"/>
<stop offset="1" stop-color="white"/>
</radialGradient>
<radialGradient id="paint9_radial_56_677" cx="0" cy="0" r="1" gradientUnits="userSpaceOnUse" gradientTransform="translate(437.586 456.854) rotate(35.9917) scale(471.247 69.768)">
<stop stop-color="#E55436"/>
<stop offset="1" stop-color="white"/>
</radialGradient>
<radialGradient id="paint10_radial_56_677" cx="0" cy="0" r="1" gradientUnits="userSpaceOnUse" gradientTransform="translate(426.85 446.121) rotate(41.9913) scale(471.232 69.7702)">
<stop stop-color="#E55436"/>
<stop offset="1" stop-color="white"/>
</radialGradient>
<radialGradient id="paint11_radial_56_677" cx="0" cy="0" r="1" gradientUnits="userSpaceOnUse" gradientTransform="translate(416.115 435.389) rotate(47.9913) scale(471.217 69.7724)">
<stop stop-color="#E55436"/>
<stop offset="1" stop-color="white"/>
</radialGradient>
<radialGradient id="paint12_radial_56_677" cx="0" cy="0" r="1" gradientUnits="userSpaceOnUse" gradientTransform="translate(405.379 424.657) rotate(53.9917) scale(471.202 69.7745)">
<stop stop-color="#E55436"/>
<stop offset="1" stop-color="white"/>
</radialGradient>
<radialGradient id="paint13_radial_56_677" cx="0" cy="0" r="1" gradientUnits="userSpaceOnUse" gradientTransform="translate(394.643 413.924) rotate(59.9925) scale(471.189 69.7766)">
<stop stop-color="#E55436"/>
<stop offset="1" stop-color="white"/>
</radialGradient>
<radialGradient id="paint14_radial_56_677" cx="0" cy="0" r="1" gradientUnits="userSpaceOnUse" gradientTransform="translate(383.908 403.192) rotate(65.9935) scale(471.176 69.7784)">
<stop stop-color="#E55436"/>
<stop offset="1" stop-color="white"/>
</radialGradient>
<radialGradient id="paint15_radial_56_677" cx="0" cy="0" r="1" gradientUnits="userSpaceOnUse" gradientTransform="translate(373.172 392.459) rotate(71.9949) scale(471.166 69.7799)">
<stop stop-color="#E55436"/>
<stop offset="1" stop-color="white"/>
</radialGradient>
<radialGradient id="paint16_radial_56_677" cx="0" cy="0" r="1" gradientUnits="userSpaceOnUse" gradientTransform="translate(362.436 381.727) rotate(77.9965) scale(471.159 69.781)">
<stop stop-color="#E55436"/>
<stop offset="1" stop-color="white"/>
</radialGradient>
<radialGradient id="paint17_radial_56_677" cx="0" cy="0" r="1" gradientUnits="userSpaceOnUse" gradientTransform="translate(351.701 370.995) rotate(83.9982) scale(471.154 69.7817)">
<stop stop-color="#E55436"/>
<stop offset="1" stop-color="white"/>
</radialGradient>
<radialGradient id="paint18_radial_56_677" cx="0" cy="0" r="1" gradientUnits="userSpaceOnUse" gradientTransform="translate(340.965 360.262) rotate(90) scale(471.153 69.7819)">
<stop stop-color="#E55436"/>
<stop offset="1" stop-color="white"/>
</radialGradient>
</defs>
</svg>
